<svg viewBox="0 0 1300 820" xmlns="http://www.w3.org/2000/svg" font-family="Arial, sans-serif" font-size="12">
  <rect width="1300" height="820" fill="white"/>
  <text x="650" y="24" text-anchor="middle" font-size="15" font-weight="bold" fill="#1a1a1a">Soluzione adottata — tre tabelle: CLIENTE + PRIVATO + AZIENDA</text>

  <!-- ══════════════════════════════════════════
       LINEE / RELAZIONI  (disegnate PRIMA dei box)
       ══════════════════════════════════════════ -->

  <!-- ── produce: MARCA → rombo → AUTO ── -->
  <line x1="160" y1="137" x2="168" y2="192" stroke="#555" stroke-width="1.5"/>
  <text x="163" y="128" fill="#555" font-size="10">(0,N)</text>
  <line x1="232" y1="192" x2="235" y2="230" stroke="#555" stroke-width="1.5"/>
  <text x="215" y="218" fill="#555" font-size="10">(1,1)</text>

  <!-- ── fornisce: FORNITORE → rombo → AUTO ── -->
  <line x1="160" y1="342" x2="168" y2="295" stroke="#555" stroke-width="1.5"/>
  <text x="163" y="348" fill="#555" font-size="10">(0,N)</text>
  <line x1="232" y1="295" x2="235" y2="268" stroke="#555" stroke-width="1.5"/>
  <text x="215" y="260" fill="#555" font-size="10">(1,1)</text>

  <!-- ── richiede: AUTO → rombo → MANUTENZIONE ── -->
  <line x1="310" y1="335" x2="308" y2="398" stroke="#555" stroke-width="1.5"/>
  <text x="317" y="338" fill="#555" font-size="10">(0,N)</text>
  <line x1="308" y1="426" x2="307" y2="490" stroke="#555" stroke-width="1.5"/>
  <text x="313" y="487" fill="#555" font-size="10">(1,1)</text>

  <!-- ── effettua: CLIENTE → rombo → VENDITA ── -->
  <line x1="650" y1="145" x2="723" y2="248" stroke="#555" stroke-width="1.5"/>
  <text x="653" y="140" fill="#555" font-size="10">(0,N)</text>
  <line x1="787" y1="248" x2="875" y2="340" stroke="#555" stroke-width="1.5"/>
  <text x="849" y="295" fill="#555" font-size="10">(1,1)</text>

  <!-- ── gestisce: DIPENDENTE → rombo → VENDITA ── -->
  <line x1="952" y1="200" x2="954" y2="228" stroke="#555" stroke-width="1.5"/>
  <text x="960" y="205" fill="#555" font-size="10">(0,N)</text>
  <line x1="954" y1="256" x2="957" y2="285" stroke="#555" stroke-width="1.5"/>
  <text x="960" y="280" fill="#555" font-size="10">(1,1)</text>

  <!-- ── appartiene: CLIENTE → rombo → PRIVATO ── -->
  <line x1="530" y1="210" x2="490" y2="281" stroke="#555" stroke-width="1.5"/>
  <text x="505" y="222" fill="#555" font-size="10">(0,1)</text>
  <line x1="490" y1="309" x2="445" y2="380" stroke="#555" stroke-width="1.5"/>
  <text x="452" y="372" fill="#555" font-size="10">(1,1)</text>

  <!-- ── appartiene: CLIENTE → rombo → AZIENDA ── -->
  <line x1="620" y1="210" x2="637" y2="281" stroke="#555" stroke-width="1.5"/>
  <text x="625" y="222" fill="#555" font-size="10">(0,1)</text>
  <line x1="637" y1="309" x2="677" y2="380" stroke="#555" stroke-width="1.5"/>
  <text x="655" y="372" fill="#555" font-size="10">(1,1)</text>

  <!-- VENDITA ─── DETTAGLIO_VENDITA (N:M)  (1,N) -->
  <line x1="920" y1="445" x2="730" y2="615" stroke="#555" stroke-width="1.5"/>
  <text x="908" y="458" fill="#555" font-size="10">(1,N)</text>

  <!-- AUTO ─── DETTAGLIO_VENDITA (N:M)  (0,N) -->
  <line x1="310" y1="335" x2="594" y2="615" stroke="#555" stroke-width="1.5"/>
  <text x="316" y="356" fill="#555" font-size="10">(0,N)</text>

  <!-- ══════════════════════════════════════════
       TABELLE
       ══════════════════════════════════════════ -->

  <!-- MARCA -->
  <rect x="30" y="90" width="130" height="95" rx="5" fill="#f8f9fa" stroke="#6c757d" stroke-width="1.5"/>
  <rect x="30" y="90" width="130" height="22" rx="5" fill="#343a40"/>
  <rect x="30" y="106" width="130" height="6" fill="#343a40"/>
  <text x="95" y="105" text-anchor="middle" fill="white" font-weight="bold" font-size="12">MARCA</text>
  <text x="44" y="126" fill="#c0392b" font-size="11" font-weight="bold">PK</text><text x="62" y="126" fill="#333" font-size="11">id_marca</text>
  <text x="44" y="142" fill="#555" font-size="11">   nome</text>
  <text x="44" y="158" fill="#555" font-size="11">   paese</text>

  <!-- FORNITORE -->
  <rect x="30" y="295" width="130" height="95" rx="5" fill="#f8f9fa" stroke="#6c757d" stroke-width="1.5"/>
  <rect x="30" y="295" width="130" height="22" rx="5" fill="#343a40"/>
  <rect x="30" y="311" width="130" height="6" fill="#343a40"/>
  <text x="95" y="310" text-anchor="middle" fill="white" font-weight="bold" font-size="12">FORNITORE</text>
  <text x="44" y="331" fill="#c0392b" font-size="11" font-weight="bold">PK</text><text x="62" y="331" fill="#333" font-size="11">id_fornitore</text>
  <text x="44" y="347" fill="#555" font-size="11">   nome</text>
  <text x="44" y="363" fill="#555" font-size="11">   paese</text>

  <!-- AUTO -->
  <rect x="235" y="160" width="150" height="175" rx="5" fill="#f8f9fa" stroke="#6c757d" stroke-width="1.5"/>
  <rect x="235" y="160" width="150" height="22" rx="5" fill="#343a40"/>
  <rect x="235" y="176" width="150" height="6" fill="#343a40"/>
  <text x="310" y="175" text-anchor="middle" fill="white" font-weight="bold" font-size="12">AUTO</text>
  <text x="249" y="196" fill="#c0392b" font-size="11" font-weight="bold">PK</text><text x="267" y="196" fill="#333" font-size="11">id_auto</text>
  <text x="249" y="212" fill="#555" font-size="11">   modello</text>
  <text x="249" y="228" fill="#555" font-size="11">   prezzo</text>
  <text x="249" y="244" fill="#555" font-size="11">   anno</text>
  <text x="249" y="260" fill="#555" font-size="11">   stato</text>
  <line x1="241" y1="267" x2="379" y2="267" stroke="#ddd" stroke-width="1"/>
  <text x="249" y="282" fill="#e74c3c" font-size="11" font-weight="bold">FK</text><text x="267" y="282" fill="#e74c3c" font-size="11">id_marca</text>
  <text x="249" y="298" fill="#e74c3c" font-size="11" font-weight="bold">FK</text><text x="267" y="298" fill="#e74c3c" font-size="11">id_fornitore</text>

  <!-- MANUTENZIONE -->
  <rect x="230" y="490" width="155" height="120" rx="5" fill="#f8f9fa" stroke="#6c757d" stroke-width="1.5"/>
  <rect x="230" y="490" width="155" height="22" rx="5" fill="#343a40"/>
  <rect x="230" y="506" width="155" height="6" fill="#343a40"/>
  <text x="307" y="505" text-anchor="middle" fill="white" font-weight="bold" font-size="12">MANUTENZIONE</text>
  <text x="244" y="526" fill="#c0392b" font-size="11" font-weight="bold">PK</text><text x="262" y="526" fill="#333" font-size="11">id_manutenzione</text>
  <text x="244" y="542" fill="#555" font-size="11">   data_intervento</text>
  <text x="244" y="558" fill="#555" font-size="11">   descrizione</text>
  <text x="244" y="574" fill="#555" font-size="11">   costo</text>
  <line x1="236" y1="580" x2="379" y2="580" stroke="#ddd" stroke-width="1"/>
  <text x="244" y="596" fill="#e74c3c" font-size="11" font-weight="bold">FK</text><text x="262" y="596" fill="#e74c3c" font-size="11">id_auto</text>

  <!-- CLIENTE -->
  <rect x="490" y="80" width="160" height="130" rx="5" fill="#e8f5e9" stroke="#27ae60" stroke-width="2"/>
  <rect x="490" y="80" width="160" height="22" rx="5" fill="#27ae60"/>
  <rect x="490" y="96" width="160" height="6" fill="#27ae60"/>
  <text x="570" y="95" text-anchor="middle" fill="white" font-weight="bold" font-size="12">CLIENTE</text>
  <text x="504" y="116" fill="#c0392b" font-size="11" font-weight="bold">PK</text><text x="522" y="116" fill="#333" font-size="11">id_cliente</text>
  <text x="504" y="132" fill="#555" font-size="11">   email</text>
  <text x="504" y="148" fill="#555" font-size="11">   telefono</text>
  <text x="504" y="164" fill="#555" font-size="11">   citta</text>
  <text x="504" y="180" fill="#555" font-size="11">   tipo_cliente</text>
  <text x="504" y="198" fill="#27ae60" font-size="10" font-style="italic">specializzazione (0,1) per tipo</text>

  <!-- PRIVATO -->
  <rect x="365" y="380" width="160" height="150" rx="5" fill="#e3f2fd" stroke="#2196f3" stroke-width="2"/>
  <rect x="365" y="380" width="160" height="22" rx="5" fill="#2196f3"/>
  <rect x="365" y="396" width="160" height="6" fill="#2196f3"/>
  <text x="445" y="395" text-anchor="middle" fill="white" font-weight="bold" font-size="12">PRIVATO</text>
  <text x="379" y="416" fill="#c0392b" font-size="11" font-weight="bold">PK</text><text x="397" y="416" fill="#333" font-size="11">id_privato</text>
  <text x="379" y="432" fill="#e74c3c" font-size="11" font-weight="bold">FK</text><text x="397" y="432" fill="#e74c3c" font-size="11">id_cliente</text>
  <text x="379" y="448" fill="#555" font-size="11">   codice_fiscale</text>
  <text x="379" y="464" fill="#555" font-size="11">   nome</text>
  <text x="379" y="480" fill="#555" font-size="11">   cognome</text>
  <text x="379" y="496" fill="#555" font-size="11">   data_nascita</text>

  <!-- AZIENDA -->
  <rect x="600" y="380" width="155" height="135" rx="5" fill="#fff3e0" stroke="#ff9800" stroke-width="2"/>
  <rect x="600" y="380" width="155" height="22" rx="5" fill="#ff9800"/>
  <rect x="600" y="396" width="155" height="6" fill="#ff9800"/>
  <text x="677" y="395" text-anchor="middle" fill="white" font-weight="bold" font-size="12">AZIENDA</text>
  <text x="614" y="416" fill="#c0392b" font-size="11" font-weight="bold">PK</text><text x="632" y="416" fill="#333" font-size="11">id_azienda</text>
  <text x="614" y="432" fill="#e74c3c" font-size="11" font-weight="bold">FK</text><text x="632" y="432" fill="#e74c3c" font-size="11">id_cliente</text>
  <text x="614" y="448" fill="#555" font-size="11">   partita_iva</text>
  <text x="614" y="464" fill="#555" font-size="11">   ragione_sociale</text>
  <text x="614" y="480" fill="#555" font-size="11">   settore</text>

  <!-- DIPENDENTE -->
  <rect x="875" y="75" width="155" height="125" rx="5" fill="#f8f9fa" stroke="#6c757d" stroke-width="1.5"/>
  <rect x="875" y="75" width="155" height="22" rx="5" fill="#343a40"/>
  <rect x="875" y="91" width="155" height="6" fill="#343a40"/>
  <text x="952" y="90" text-anchor="middle" fill="white" font-weight="bold" font-size="12">DIPENDENTE</text>
  <text x="889" y="110" fill="#c0392b" font-size="11" font-weight="bold">PK</text><text x="907" y="110" fill="#333" font-size="11">id_dipendente</text>
  <text x="889" y="126" fill="#555" font-size="11">   nome</text>
  <text x="889" y="142" fill="#555" font-size="11">   cognome</text>
  <text x="889" y="158" fill="#555" font-size="11">   ruolo</text>
  <text x="889" y="174" fill="#555" font-size="11">   stipendio</text>

  <!-- VENDITA -->
  <rect x="875" y="285" width="165" height="160" rx="5" fill="#f8f9fa" stroke="#6c757d" stroke-width="1.5"/>
  <rect x="875" y="285" width="165" height="22" rx="5" fill="#343a40"/>
  <rect x="875" y="301" width="165" height="6" fill="#343a40"/>
  <text x="957" y="300" text-anchor="middle" fill="white" font-weight="bold" font-size="12">VENDITA</text>
  <text x="889" y="320" fill="#c0392b" font-size="11" font-weight="bold">PK</text><text x="907" y="320" fill="#333" font-size="11">id_vendita</text>
  <text x="889" y="336" fill="#555" font-size="11">   data_vendita</text>
  <text x="889" y="352" fill="#555" font-size="11">   importo_totale</text>
  <line x1="881" y1="360" x2="1034" y2="360" stroke="#ddd" stroke-width="1"/>
  <text x="889" y="376" fill="#e74c3c" font-size="11" font-weight="bold">FK</text><text x="907" y="376" fill="#e74c3c" font-size="11">id_cliente</text>
  <text x="889" y="392" fill="#e74c3c" font-size="11" font-weight="bold">FK</text><text x="907" y="392" fill="#e74c3c" font-size="11">id_dipendente</text>

  <!-- ══════════════════════════════════════════
       ROMBI RELAZIONI
       ══════════════════════════════════════════ -->

  <!-- produce (MARCA – AUTO) -->
  <polygon points="200,178 232,192 200,206 168,192" fill="#f0f4ff" stroke="#555" stroke-width="1.5"/>
  <text x="200" y="196" text-anchor="middle" fill="#333" font-size="9" font-style="italic">produce</text>

  <!-- fornisce (FORNITORE – AUTO) -->
  <polygon points="200,281 232,295 200,309 168,295" fill="#f0f4ff" stroke="#555" stroke-width="1.5"/>
  <text x="200" y="299" text-anchor="middle" fill="#333" font-size="9" font-style="italic">fornisce</text>

  <!-- richiede (AUTO – MANUTENZIONE) -->
  <polygon points="308,398 343,412 308,426 273,412" fill="#f0f4ff" stroke="#555" stroke-width="1.5"/>
  <text x="308" y="416" text-anchor="middle" fill="#333" font-size="9" font-style="italic">richiede</text>

  <!-- effettua (CLIENTE – VENDITA) -->
  <polygon points="755,234 787,248 755,262 723,248" fill="#f0f4ff" stroke="#555" stroke-width="1.5"/>
  <text x="755" y="252" text-anchor="middle" fill="#333" font-size="9" font-style="italic">effettua</text>

  <!-- gestisce (DIPENDENTE – VENDITA) -->
  <polygon points="954,228 986,242 954,256 922,242" fill="#f0f4ff" stroke="#555" stroke-width="1.5"/>
  <text x="954" y="246" text-anchor="middle" fill="#333" font-size="9" font-style="italic">gestisce</text>

  <!-- appartiene (CLIENTE – PRIVATO) -->
  <polygon points="490,281 522,295 490,309 458,295" fill="#f0f4ff" stroke="#555" stroke-width="1.5"/>
  <text x="490" y="299" text-anchor="middle" fill="#333" font-size="9" font-style="italic">appartiene</text>

  <!-- appartiene (CLIENTE – AZIENDA) -->
  <polygon points="637,281 669,295 637,309 605,295" fill="#f0f4ff" stroke="#555" stroke-width="1.5"/>
  <text x="637" y="299" text-anchor="middle" fill="#333" font-size="9" font-style="italic">appartiene</text>

  <!-- DETTAGLIO_VENDITA — relazione N:M (rombo) -->
  <polygon points="662,585 730,615 662,645 594,615" fill="#f5f5f5" stroke="#555" stroke-width="1.5"/>
  <text x="662" y="619" text-anchor="middle" fill="#333" font-size="10" font-weight="bold">DETTAGLIO_VENDITA</text>
  <!-- attributi come ovali -->
  <line x1="608" y1="638" x2="575" y2="668" stroke="#888" stroke-width="1"/>
  <ellipse cx="555" cy="681" rx="38" ry="14" fill="#fafafa" stroke="#888" stroke-width="1"/>
  <text x="555" y="685" text-anchor="middle" fill="#333" font-size="10">quantità</text>
  <line x1="716" y1="638" x2="750" y2="668" stroke="#888" stroke-width="1"/>
  <ellipse cx="785" cy="681" rx="52" ry="14" fill="#fafafa" stroke="#888" stroke-width="1"/>
  <text x="785" y="685" text-anchor="middle" fill="#333" font-size="10">prezzo_unitario</text>

</svg>
