<svg viewBox="0 0 1100 580" xmlns="http://www.w3.org/2000/svg" font-family="Arial, sans-serif" font-size="12">
  <rect width="1100" height="680" fill="white"/>
  <title>Modello E-R concettuale — Generalizzazione non risolta</title>
  <text x="550" y="24" text-anchor="middle" font-size="15" font-weight="bold" fill="#1a1a1a">Modello E-R concettuale — Generalizzazione non risolta</text>

  <!-- ══════════════════════════════════════════
       LINEE RELAZIONI
       ══════════════════════════════════════════ -->

  <!-- produce: MARCA → AUTO -->
  <line x1="130" y1="130" x2="168" y2="188" stroke="#555" stroke-width="1.5"/>
  <text x="105" y="126" fill="#555" font-size="10">(0,N)</text>
  <line x1="232" y1="188" x2="240" y2="220" stroke="#555" stroke-width="1.5"/>
  <text x="242" y="218" fill="#555" font-size="10">(1,1)</text>

  <!-- fornisce: FORNITORE → AUTO -->
  <line x1="130" y1="330" x2="168" y2="295" stroke="#555" stroke-width="1.5"/>
  <text x="105" y="338" fill="#555" font-size="10">(0,N)</text>
  <line x1="232" y1="295" x2="240" y2="268" stroke="#555" stroke-width="1.5"/>
  <text x="242" y="265" fill="#555" font-size="10">(1,1)</text>

  <!-- richiede: AUTO → MANUTENZIONE -->
  <line x1="315" y1="335" x2="313" y2="392" stroke="#555" stroke-width="1.5"/>
  <text x="320" y="348" fill="#555" font-size="10">(0,N)</text>
  <line x1="313" y1="420" x2="310" y2="460" stroke="#555" stroke-width="1.5"/>
  <text x="316" y="456" fill="#555" font-size="10">(1,1)</text>

  <!-- effettua: CLIENTE → VENDITA -->
  <line x1="655" y1="170" x2="720" y2="235" stroke="#555" stroke-width="1.5"/>
  <text x="658" y="163" fill="#555" font-size="10">(0,N)</text>
  <line x1="784" y1="235" x2="860" y2="290" stroke="#555" stroke-width="1.5"/>
  <text x="838" y="285" fill="#555" font-size="10">(1,1)</text>

  <!-- gestisce: DIPENDENTE → VENDITA -->
  <line x1="960" y1="185" x2="958" y2="218" stroke="#555" stroke-width="1.5"/>
  <text x="965" y="200" fill="#555" font-size="10">(0,N)</text>
  <line x1="958" y1="246" x2="956" y2="278" stroke="#555" stroke-width="1.5"/>
  <text x="962" y="273" fill="#555" font-size="10">(1,1)</text>

  <!-- VENDITA → DETTAGLIO_VENDITA -->
  <line x1="900" y1="408" x2="730" y2="530" stroke="#555" stroke-width="1.5"/>
  <text x="906" y="422" fill="#555" font-size="10">(1,N)</text>

  <!-- AUTO → DETTAGLIO_VENDITA -->
  <line x1="360" y1="335" x2="594" y2="530" stroke="#555" stroke-width="1.5"/>
  <text x="382" y="355" fill="#555" font-size="10">(0,N)</text>

  <!-- ══════════════════════════════════════════
       ENTITÀ
       ══════════════════════════════════════════ -->

  <!-- MARCA -->
  <rect x="30" y="88" width="100" height="75" rx="5" fill="#f8f9fa" stroke="#6c757d" stroke-width="1.5"/>
  <rect x="30" y="88" width="100" height="20" rx="5" fill="#343a40"/>
  <rect x="30" y="102" width="100" height="6" fill="#343a40"/>
  <text x="80" y="101" text-anchor="middle" fill="white" font-weight="bold" font-size="11">MARCA</text>
  <text x="40" y="120" fill="#555" font-size="10">id_marca PK</text>
  <text x="40" y="134" fill="#555" font-size="10">nome</text>
  <text x="40" y="148" fill="#555" font-size="10">paese</text>

  <!-- FORNITORE -->
  <rect x="30" y="288" width="100" height="75" rx="5" fill="#f8f9fa" stroke="#6c757d" stroke-width="1.5"/>
  <rect x="30" y="288" width="100" height="20" rx="5" fill="#343a40"/>
  <rect x="30" y="302" width="100" height="6" fill="#343a40"/>
  <text x="80" y="301" text-anchor="middle" fill="white" font-weight="bold" font-size="11">FORNITORE</text>
  <text x="40" y="320" fill="#555" font-size="10">id_fornitore PK</text>
  <text x="40" y="334" fill="#555" font-size="10">nome</text>
  <text x="40" y="348" fill="#555" font-size="10">paese</text>

  <!-- AUTO -->
  <rect x="240" y="160" width="150" height="175" rx="5" fill="#f8f9fa" stroke="#6c757d" stroke-width="1.5"/>
  <rect x="240" y="160" width="150" height="20" rx="5" fill="#343a40"/>
  <rect x="240" y="174" width="150" height="6" fill="#343a40"/>
  <text x="315" y="173" text-anchor="middle" fill="white" font-weight="bold" font-size="11">AUTO</text>
  <text x="250" y="192" fill="#555" font-size="10">id_auto PK</text>
  <text x="250" y="206" fill="#555" font-size="10">modello</text>
  <text x="250" y="220" fill="#555" font-size="10">prezzo</text>
  <text x="250" y="234" fill="#555" font-size="10">anno</text>
  <text x="250" y="248" fill="#555" font-size="10">stato</text>
  <line x1="246" y1="255" x2="384" y2="255" stroke="#ddd" stroke-width="1"/>
  <text x="250" y="269" fill="#e74c3c" font-size="10">id_marca FK</text>
  <text x="250" y="283" fill="#e74c3c" font-size="10">id_fornitore FK</text>

  <!-- MANUTENZIONE -->
  <rect x="232" y="460" width="155" height="100" rx="5" fill="#f8f9fa" stroke="#6c757d" stroke-width="1.5"/>
  <rect x="232" y="460" width="155" height="20" rx="5" fill="#343a40"/>
  <rect x="232" y="474" width="155" height="6" fill="#343a40"/>
  <text x="309" y="473" text-anchor="middle" fill="white" font-weight="bold" font-size="11">MANUTENZIONE</text>
  <text x="242" y="491" fill="#555" font-size="10">id_manutenzione PK</text>
  <text x="242" y="505" fill="#555" font-size="10">data_intervento</text>
  <text x="242" y="519" fill="#555" font-size="10">descrizione, costo</text>
  <text x="242" y="533" fill="#e74c3c" font-size="10">id_auto FK</text>

  <!-- CLIENTE — entità unica con tutti gli attributi mescolati -->
  <rect x="455" y="55" width="200" height="230" rx="5" fill="#fef9e7" stroke="#c0392b" stroke-width="2.5"/>
  <rect x="455" y="55" width="200" height="22" rx="5" fill="#c0392b"/>
  <rect x="455" y="71" width="200" height="6" fill="#c0392b"/>
  <text x="555" y="70" text-anchor="middle" fill="white" font-weight="bold" font-size="13">CLIENTE</text>
  <text x="465" y="90" fill="#333" font-size="10" font-weight="bold">id_cliente</text>
  <text x="545" y="90" fill="#888" font-size="9">PK</text>
  <text x="465" y="104" fill="#555" font-size="10">email</text>
  <text x="465" y="118" fill="#555" font-size="10">telefono</text>
  <text x="465" y="132" fill="#555" font-size="10">citta</text>
  <line x1="461" y1="140" x2="649" y2="140" stroke="#e74c3c" stroke-dasharray="5,3" stroke-width="1.2"/>
  <text x="555" y="152" text-anchor="middle" fill="#c0392b" font-size="9" font-style="italic">attributi solo per PRIVATO ↓</text>
  <text x="465" y="166" fill="#999" font-size="10">codice_fiscale</text>
  <text x="465" y="180" fill="#999" font-size="10">nome</text>
  <text x="465" y="194" fill="#999" font-size="10">cognome</text>
  <text x="465" y="208" fill="#999" font-size="10">data_nascita</text>
  <line x1="461" y1="215" x2="649" y2="215" stroke="#e74c3c" stroke-dasharray="5,3" stroke-width="1.2"/>
  <text x="555" y="227" text-anchor="middle" fill="#c0392b" font-size="9" font-style="italic">attributi solo per AZIENDA ↓</text>
  <text x="465" y="241" fill="#999" font-size="10">partita_iva</text>
  <text x="465" y="255" fill="#999" font-size="10">ragione_sociale</text>
  <text x="465" y="269" fill="#999" font-size="10">settore</text>

  <!-- DIPENDENTE -->
  <rect x="880" y="68" width="150" height="117" rx="5" fill="#f8f9fa" stroke="#6c757d" stroke-width="1.5"/>
  <rect x="880" y="68" width="150" height="20" rx="5" fill="#343a40"/>
  <rect x="880" y="82" width="150" height="6" fill="#343a40"/>
  <text x="955" y="81" text-anchor="middle" fill="white" font-weight="bold" font-size="11">DIPENDENTE</text>
  <text x="890" y="100" fill="#555" font-size="10">id_dipendente PK</text>
  <text x="890" y="114" fill="#555" font-size="10">nome</text>
  <text x="890" y="128" fill="#555" font-size="10">cognome</text>
  <text x="890" y="142" fill="#555" font-size="10">ruolo, stipendio</text>

  <!-- VENDITA -->
  <rect x="852" y="278" width="160" height="130" rx="5" fill="#f8f9fa" stroke="#6c757d" stroke-width="1.5"/>
  <rect x="852" y="278" width="160" height="20" rx="5" fill="#343a40"/>
  <rect x="852" y="292" width="160" height="6" fill="#343a40"/>
  <text x="932" y="291" text-anchor="middle" fill="white" font-weight="bold" font-size="11">VENDITA</text>
  <text x="862" y="309" fill="#555" font-size="10">id_vendita PK</text>
  <text x="862" y="323" fill="#555" font-size="10">data_vendita</text>
  <text x="862" y="337" fill="#555" font-size="10">importo_totale</text>
  <line x1="858" y1="344" x2="1006" y2="344" stroke="#ddd" stroke-width="1"/>
  <text x="862" y="358" fill="#e74c3c" font-size="10">id_cliente FK</text>
  <text x="862" y="372" fill="#e74c3c" font-size="10">id_dipendente FK</text>

  <!-- ══════════════════════════════════════════
       ROMBI RELAZIONI
       ══════════════════════════════════════════ -->

  <polygon points="200,174 232,188 200,202 168,188" fill="#f0f4ff" stroke="#555" stroke-width="1.5"/>
  <text x="200" y="192" text-anchor="middle" fill="#333" font-size="9" font-style="italic">produce</text>

  <polygon points="200,281 232,295 200,309 168,295" fill="#f0f4ff" stroke="#555" stroke-width="1.5"/>
  <text x="200" y="299" text-anchor="middle" fill="#333" font-size="9" font-style="italic">fornisce</text>

  <polygon points="313,392 348,406 313,420 278,406" fill="#f0f4ff" stroke="#555" stroke-width="1.5"/>
  <text x="313" y="410" text-anchor="middle" fill="#333" font-size="9" font-style="italic">richiede</text>

  <polygon points="752,221 784,235 752,249 720,235" fill="#f0f4ff" stroke="#555" stroke-width="1.5"/>
  <text x="752" y="239" text-anchor="middle" fill="#333" font-size="9" font-style="italic">effettua</text>

  <polygon points="958,218 990,232 958,246 926,232" fill="#f0f4ff" stroke="#555" stroke-width="1.5"/>
  <text x="958" y="236" text-anchor="middle" fill="#333" font-size="9" font-style="italic">gestisce</text>

  <!-- DETTAGLIO_VENDITA -->
  <polygon points="662,502 730,530 662,558 594,530" fill="#f5f5f5" stroke="#555" stroke-width="1.5"/>
  <text x="662" y="534" text-anchor="middle" fill="#333" font-size="10" font-weight="bold">DETTAGLIO_VENDITA</text>

</svg>
