<svg viewBox="0 0 1250 790" xmlns="http://www.w3.org/2000/svg" font-family="Arial, sans-serif" font-size="12">
  <rect width="1250" height="790" fill="white"/>
  <text x="625" y="24" text-anchor="middle" font-size="15" font-weight="bold" fill="#1a1a1a">Scenario 2 — PRIVATO e AZIENDA separate, nessuna tabella padre</text>

  <!-- ══════════════════════════════════════════
       LINEE / RELAZIONI
       ══════════════════════════════════════════ -->

  <!-- ── produce: MARCA → rombo → AUTO ── -->
  <line x1="160" y1="135" x2="168" y2="188" stroke="#555" stroke-width="1.5"/>
  <text x="163" y="125" fill="#555" font-size="10">(0,N)</text>
  <line x1="232" y1="188" x2="230" y2="220" stroke="#555" stroke-width="1.5"/>
  <text x="233" y="218" fill="#555" font-size="10">(1,1)</text>

  <!-- ── fornisce: FORNITORE → rombo → AUTO ── -->
  <line x1="160" y1="335" x2="168" y2="293" stroke="#555" stroke-width="1.5"/>
  <text x="163" y="342" fill="#555" font-size="10">(0,N)</text>
  <line x1="232" y1="293" x2="230" y2="268" stroke="#555" stroke-width="1.5"/>
  <text x="233" y="265" fill="#555" font-size="10">(1,1)</text>

  <!-- ── richiede: AUTO → rombo → MANUTENZIONE ── -->
  <line x1="305" y1="330" x2="303" y2="391" stroke="#555" stroke-width="1.5"/>
  <text x="310" y="345" fill="#555" font-size="10">(0,N)</text>
  <line x1="303" y1="419" x2="300" y2="475" stroke="#555" stroke-width="1.5"/>
  <text x="307" y="471" fill="#555" font-size="10">(1,1)</text>

  <!-- ── effettua? PRIVATO → rombo → VENDITA (dashed red) ── -->
  <line x1="560" y1="175" x2="658" y2="241" stroke="#e74c3c" stroke-width="1.5" stroke-dasharray="5,3"/>
  <text x="565" y="168" fill="#e74c3c" font-size="10">(0,N) ⚠</text>
  <line x1="722" y1="255" x2="820" y2="315" stroke="#e74c3c" stroke-width="1.5" stroke-dasharray="5,3"/>
  <text x="795" y="313" fill="#e74c3c" font-size="10">(1,1) ⚠</text>

  <!-- ── effettua? AZIENDA → rombo → VENDITA (dashed red) ── -->
  <line x1="795" y1="175" x2="800" y2="250" stroke="#e74c3c" stroke-width="1.5" stroke-dasharray="5,3"/>
  <text x="797" y="162" fill="#e74c3c" font-size="10">(0,N) ⚠</text>
  <line x1="830" y1="260" x2="830" y2="275" stroke="#e74c3c" stroke-width="1.5" stroke-dasharray="5,3"/>
  <text x="832" y="273" fill="#e74c3c" font-size="10">(1,1) ⚠</text>

  <!-- ── gestisce: DIPENDENTE → rombo → VENDITA ── -->
  <line x1="1017" y1="180" x2="1015" y2="218" stroke="#555" stroke-width="1.5"/>
  <text x="1022" y="195" fill="#555" font-size="10">(0,N)</text>
  <line x1="1015" y1="238" x2="1005" y2="275" stroke="#555" stroke-width="1.5"/>
  <text x="1008" y="272" fill="#555" font-size="10">(1,1)</text>

  <!-- VENDITA ─── DETTAGLIO_VENDITA (N:M)  (1,N) -->
  <line x1="880" y1="465" x2="730" y2="590" stroke="#555" stroke-width="1.5"/>
  <text x="890" y="483" fill="#555" font-size="10">(1,N)</text>

  <!-- AUTO ─── DETTAGLIO_VENDITA (N:M)  (0,N) -->
  <line x1="360" y1="330" x2="592" y2="590" stroke="#555" stroke-width="1.5"/>
  <text x="385" y="350" fill="#555" font-size="10">(0,N)</text>

  <!-- ══════════════════════════════════════════
       TABELLE
       ══════════════════════════════════════════ -->

  <!-- MARCA -->
  <rect x="30" y="90" width="130" height="95" rx="5" fill="#f8f9fa" stroke="#6c757d" stroke-width="1.5"/>
  <rect x="30" y="90" width="130" height="22" rx="5" fill="#343a40"/>
  <rect x="30" y="106" width="130" height="6" fill="#343a40"/>
  <text x="95" y="105" text-anchor="middle" fill="white" font-weight="bold" font-size="12">MARCA</text>
  <text x="44" y="126" fill="#c0392b" font-size="11" font-weight="bold">PK</text><text x="62" y="126" fill="#333" font-size="11">id_marca</text>
  <text x="44" y="142" fill="#555" font-size="11">   nome</text>
  <text x="44" y="158" fill="#555" font-size="11">   paese</text>

  <!-- FORNITORE -->
  <rect x="30" y="290" width="130" height="95" rx="5" fill="#f8f9fa" stroke="#6c757d" stroke-width="1.5"/>
  <rect x="30" y="290" width="130" height="22" rx="5" fill="#343a40"/>
  <rect x="30" y="306" width="130" height="6" fill="#343a40"/>
  <text x="95" y="305" text-anchor="middle" fill="white" font-weight="bold" font-size="12">FORNITORE</text>
  <text x="44" y="325" fill="#c0392b" font-size="11" font-weight="bold">PK</text><text x="62" y="325" fill="#333" font-size="11">id_fornitore</text>
  <text x="44" y="341" fill="#555" font-size="11">   nome</text>
  <text x="44" y="357" fill="#555" font-size="11">   paese</text>

  <!-- AUTO -->
  <rect x="230" y="160" width="150" height="170" rx="5" fill="#f8f9fa" stroke="#6c757d" stroke-width="1.5"/>
  <rect x="230" y="160" width="150" height="22" rx="5" fill="#343a40"/>
  <rect x="230" y="176" width="150" height="6" fill="#343a40"/>
  <text x="305" y="175" text-anchor="middle" fill="white" font-weight="bold" font-size="12">AUTO</text>
  <text x="244" y="196" fill="#c0392b" font-size="11" font-weight="bold">PK</text><text x="262" y="196" fill="#333" font-size="11">id_auto</text>
  <text x="244" y="212" fill="#555" font-size="11">   modello</text>
  <text x="244" y="228" fill="#555" font-size="11">   prezzo</text>
  <text x="244" y="244" fill="#555" font-size="11">   anno</text>
  <text x="244" y="260" fill="#555" font-size="11">   stato</text>
  <line x1="236" y1="267" x2="374" y2="267" stroke="#ddd" stroke-width="1"/>
  <text x="244" y="282" fill="#e74c3c" font-size="11" font-weight="bold">FK</text><text x="262" y="282" fill="#e74c3c" font-size="11">id_marca</text>
  <text x="244" y="298" fill="#e74c3c" font-size="11" font-weight="bold">FK</text><text x="262" y="298" fill="#e74c3c" font-size="11">id_fornitore</text>

  <!-- PRIVATO (con attributi duplicati evidenziati) -->
  <rect x="390" y="60" width="175" height="220" rx="5" fill="#eaf4fb" stroke="#3498db" stroke-width="2"/>
  <rect x="390" y="60" width="175" height="22" rx="5" fill="#3498db"/>
  <rect x="390" y="76" width="175" height="6" fill="#3498db"/>
  <text x="477" y="75" text-anchor="middle" fill="white" font-weight="bold" font-size="12">PRIVATO</text>
  <text x="404" y="96" fill="#c0392b" font-size="11" font-weight="bold">PK</text><text x="422" y="96" fill="#333" font-size="11">id_cliente</text>
  <!-- attributi duplicati in giallo -->
  <rect x="400" y="101" width="157" height="15" rx="2" fill="#fff3cd"/>
  <text x="404" y="113" fill="#856404" font-size="11">   email ⚠ duplicato</text>
  <rect x="400" y="117" width="157" height="15" rx="2" fill="#fff3cd"/>
  <text x="404" y="129" fill="#856404" font-size="11">   telefono ⚠ duplicato</text>
  <rect x="400" y="133" width="157" height="15" rx="2" fill="#fff3cd"/>
  <text x="404" y="145" fill="#856404" font-size="11">   citta ⚠ duplicato</text>
  <line x1="396" y1="152" x2="559" y2="152" stroke="#aaa" stroke-dasharray="3,3" stroke-width="1"/>
  <text x="404" y="168" fill="#333" font-size="11">   codice_fiscale</text>
  <text x="404" y="184" fill="#333" font-size="11">   nome</text>
  <text x="404" y="200" fill="#333" font-size="11">   cognome</text>
  <text x="404" y="216" fill="#333" font-size="11">   data_nascita</text>
  <text x="404" y="236" fill="#e74c3c" font-size="10" font-weight="bold">⚠ nessun padre comune</text>
  <text x="404" y="252" fill="#e74c3c" font-size="10">id_cliente ≠ id_cliente AZIENDA</text>
  <text x="404" y="268" fill="#e74c3c" font-size="10">rischio conflitti tra ID</text>

  <!-- AZIENDA (con attributi duplicati evidenziati) -->
  <rect x="620" y="60" width="175" height="205" rx="5" fill="#fef5ec" stroke="#e67e22" stroke-width="2"/>
  <rect x="620" y="60" width="175" height="22" rx="5" fill="#e67e22"/>
  <rect x="620" y="76" width="175" height="6" fill="#e67e22"/>
  <text x="707" y="75" text-anchor="middle" fill="white" font-weight="bold" font-size="12">AZIENDA</text>
  <text x="634" y="96" fill="#c0392b" font-size="11" font-weight="bold">PK</text><text x="652" y="96" fill="#333" font-size="11">id_cliente</text>
  <rect x="630" y="101" width="157" height="15" rx="2" fill="#fff3cd"/>
  <text x="634" y="113" fill="#856404" font-size="11">   email ⚠ duplicato</text>
  <rect x="630" y="117" width="157" height="15" rx="2" fill="#fff3cd"/>
  <text x="634" y="129" fill="#856404" font-size="11">   telefono ⚠ duplicato</text>
  <rect x="630" y="133" width="157" height="15" rx="2" fill="#fff3cd"/>
  <text x="634" y="145" fill="#856404" font-size="11">   citta ⚠ duplicato</text>
  <line x1="626" y1="152" x2="789" y2="152" stroke="#aaa" stroke-dasharray="3,3" stroke-width="1"/>
  <text x="634" y="168" fill="#333" font-size="11">   partita_iva</text>
  <text x="634" y="184" fill="#333" font-size="11">   ragione_sociale</text>
  <text x="634" y="200" fill="#333" font-size="11">   settore</text>
  <text x="634" y="220" fill="#e74c3c" font-size="10" font-weight="bold">⚠ nessun padre comune</text>
  <text x="634" y="236" fill="#e74c3c" font-size="10">ricerca clienti per email:</text>
  <text x="634" y="252" fill="#e74c3c" font-size="10">JOIN su due tabelle separate</text>

  <!-- DIPENDENTE -->
  <rect x="940" y="75" width="155" height="105" rx="5" fill="#f8f9fa" stroke="#6c757d" stroke-width="1.5"/>
  <rect x="940" y="75" width="155" height="22" rx="5" fill="#343a40"/>
  <rect x="940" y="91" width="155" height="6" fill="#343a40"/>
  <text x="1017" y="90" text-anchor="middle" fill="white" font-weight="bold" font-size="12">DIPENDENTE</text>
  <text x="954" y="110" fill="#c0392b" font-size="11" font-weight="bold">PK</text><text x="972" y="110" fill="#333" font-size="11">id_dipendente</text>
  <text x="954" y="126" fill="#555" font-size="11">   nome</text>
  <text x="954" y="142" fill="#555" font-size="11">   cognome</text>
  <text x="954" y="158" fill="#555" font-size="11">   ruolo</text>
  <text x="954" y="174" fill="#555" font-size="11">   stipendio</text>

  <!-- VENDITA (con due FK separate problematiche) -->
  <rect x="820" y="275" width="190" height="190" rx="5" fill="#fdecea" stroke="#e74c3c" stroke-width="2"/>
  <rect x="820" y="275" width="190" height="22" rx="5" fill="#343a40"/>
  <rect x="820" y="291" width="190" height="6" fill="#343a40"/>
  <text x="915" y="290" text-anchor="middle" fill="white" font-weight="bold" font-size="12">VENDITA</text>
  <text x="834" y="310" fill="#c0392b" font-size="11" font-weight="bold">PK</text><text x="852" y="310" fill="#333" font-size="11">id_vendita</text>
  <text x="834" y="326" fill="#555" font-size="11">   data_vendita</text>
  <text x="834" y="342" fill="#555" font-size="11">   importo_totale</text>
  <line x1="826" y1="350" x2="1004" y2="350" stroke="#ddd" stroke-width="1"/>
  <text x="834" y="366" fill="#e74c3c" font-size="11" font-weight="bold">FK</text><text x="852" y="366" fill="#e74c3c" font-size="11">id_dipendente</text>
  <text x="834" y="386" fill="#e74c3c" font-size="11" font-weight="bold">FK?</text><text x="858" y="386" fill="#e74c3c" font-size="11">id_privato ⚠</text>
  <text x="834" y="402" fill="#e74c3c" font-size="11" font-weight="bold">FK?</text><text x="858" y="402" fill="#e74c3c" font-size="11">id_azienda ⚠</text>
  <text x="834" y="422" fill="#c0392b" font-size="10" font-weight="bold">Due FK separate: problema!</text>
  <text x="834" y="438" fill="#c0392b" font-size="10">Solo una può essere NOT NULL</text>
  <text x="834" y="454" fill="#c0392b" font-size="10">per ogni riga → logica complessa</text>

  <!-- MANUTENZIONE -->
  <rect x="225" y="475" width="155" height="120" rx="5" fill="#f8f9fa" stroke="#6c757d" stroke-width="1.5"/>
  <rect x="225" y="475" width="155" height="22" rx="5" fill="#343a40"/>
  <rect x="225" y="491" width="155" height="6" fill="#343a40"/>
  <text x="302" y="490" text-anchor="middle" fill="white" font-weight="bold" font-size="12">MANUTENZIONE</text>
  <text x="239" y="510" fill="#c0392b" font-size="11" font-weight="bold">PK</text><text x="257" y="510" fill="#333" font-size="11">id_manutenzione</text>
  <text x="239" y="526" fill="#555" font-size="11">   data_intervento</text>
  <text x="239" y="542" fill="#555" font-size="11">   descrizione</text>
  <text x="239" y="558" fill="#555" font-size="11">   costo</text>
  <line x1="231" y1="565" x2="374" y2="565" stroke="#ddd" stroke-width="1"/>
  <text x="239" y="580" fill="#e74c3c" font-size="11" font-weight="bold">FK</text><text x="257" y="580" fill="#e74c3c" font-size="11">id_auto</text>

  <!-- ══════════════════════════════════════════
       ROMBI RELAZIONI
       ══════════════════════════════════════════ -->

  <!-- produce (MARCA – AUTO) -->
  <polygon points="200,174 232,188 200,202 168,188" fill="#f0f4ff" stroke="#555" stroke-width="1.5"/>
  <text x="200" y="192" text-anchor="middle" fill="#333" font-size="9" font-style="italic">produce</text>

  <!-- fornisce (FORNITORE – AUTO) -->
  <polygon points="200,279 232,293 200,307 168,293" fill="#f0f4ff" stroke="#555" stroke-width="1.5"/>
  <text x="200" y="297" text-anchor="middle" fill="#333" font-size="9" font-style="italic">fornisce</text>

  <!-- richiede (AUTO – MANUTENZIONE) -->
  <polygon points="303,391 338,405 303,419 268,405" fill="#f0f4ff" stroke="#555" stroke-width="1.5"/>
  <text x="303" y="409" text-anchor="middle" fill="#333" font-size="9" font-style="italic">richiede</text>

  <!-- effettua? (PRIVATO – VENDITA, problema) -->
  <polygon points="690,241 722,255 690,269 658,255" fill="#fdecea" stroke="#e74c3c" stroke-width="1.5" stroke-dasharray="5,3"/>
  <text x="690" y="259" text-anchor="middle" fill="#c0392b" font-size="9" font-style="italic">effettua?</text>

  <!-- effettua? (AZIENDA – VENDITA, problema) -->
  <polygon points="815,250 830,260 815,270 800,260" fill="#fdecea" stroke="#e74c3c" stroke-width="1.5" stroke-dasharray="5,3"/>
  <text x="815" y="264" text-anchor="middle" fill="#c0392b" font-size="8" font-style="italic">eff.?</text>

  <!-- gestisce (DIPENDENTE – VENDITA) -->
  <polygon points="1015,218 1047,228 1015,238 983,228" fill="#f0f4ff" stroke="#555" stroke-width="1.5"/>
  <text x="1015" y="232" text-anchor="middle" fill="#333" font-size="9" font-style="italic">gestisce</text>

  <!-- DETTAGLIO_VENDITA — relazione N:M (rombo) -->
  <polygon points="662,562 730,592 662,622 594,592" fill="#f5f5f5" stroke="#555" stroke-width="1.5"/>
  <text x="662" y="596" text-anchor="middle" fill="#333" font-size="10" font-weight="bold">DETTAGLIO_VENDITA</text>
  <!-- attributi come ovali -->
  <line x1="608" y1="614" x2="574" y2="645" stroke="#888" stroke-width="1"/>
  <ellipse cx="554" cy="658" rx="38" ry="14" fill="#fafafa" stroke="#888" stroke-width="1"/>
  <text x="554" y="662" text-anchor="middle" fill="#333" font-size="10">quantità</text>
  <line x1="716" y1="614" x2="750" y2="645" stroke="#888" stroke-width="1"/>
  <ellipse cx="784" cy="658" rx="52" ry="14" fill="#fafafa" stroke="#888" stroke-width="1"/>
  <text x="784" y="662" text-anchor="middle" fill="#333" font-size="10">prezzo_unitario</text>

  <!-- ══════ PROBLEMA ══════ -->
  <rect x="30" y="698" width="1190" height="68" rx="5" fill="#fdecea" stroke="#e74c3c" stroke-width="1.5"/>
  <text x="625" y="718" text-anchor="middle" fill="#c0392b" font-size="12" font-weight="bold">Problema: attributi comuni (email, telefono, citta) duplicati in entrambe le tabelle</text>
  <text x="625" y="736" text-anchor="middle" fill="#c0392b" font-size="12">Nessun posto unico dove cercare un cliente generico: query per email richiede UNION su PRIVATO e AZIENDA.</text>
  <text x="625" y="754" text-anchor="middle" fill="#c0392b" font-size="12">VENDITA deve avere due FK separate (id_privato, id_azienda): una delle due sarà sempre NULL. Logica applicativa complessa.</text>

</svg>
