<svg viewBox="0 0 2150 1020" xmlns="http://www.w3.org/2000/svg" role="img" font-family="Helvetica,Arial,sans-serif">
<title>Scenario 2 — Accorpamento verso i figli — Concessionaria Auto</title>
<desc>Diagramma Entita-Relazione completo in notazione Chen dello schema concettuale della concessionaria auto, scenario 2 di traduzione della generalizzazione: nessuna entita Cliente comune, Privato e Azienda duplicano gli attributi condivisi ed effettuano entrambe le vendite.</desc>
<rect x="0" y="0" width="2150" height="1020" fill="white"/>
<line x1="280.3" y1="192.0" x2="335.2" y2="141.3" stroke="black" stroke-width="1.3" fill="none"/><line x1="256.0" y1="192.0" x2="274.4" y2="106.6" stroke="black" stroke-width="1.3" fill="none"/><line x1="238.1" y1="192.0" x2="204.8" y2="113.2" stroke="black" stroke-width="1.3" fill="none"/><line x1="205.1" y1="192.0" x2="151.6" y2="158.6" stroke="black" stroke-width="1.3" fill="none"/><line x1="180.0" y1="223.9" x2="124.2" y2="227.0" stroke="black" stroke-width="1.3" fill="none"/><line x1="214.5" y1="248.0" x2="158.9" y2="291.9" stroke="black" stroke-width="1.3" fill="none"/><line x1="241.7" y1="248.0" x2="216.9" y2="331.2" stroke="black" stroke-width="1.3" fill="none"/><line x1="259.4" y1="248.0" x2="286.8" y2="330.0" stroke="black" stroke-width="1.3" fill="none"/><line x1="255.6" y1="692.0" x2="270.2" y2="620.0" stroke="black" stroke-width="1.3" fill="none"/><line x1="235.0" y1="692.0" x2="202.0" y2="630.0" stroke="black" stroke-width="1.3" fill="none"/><line x1="182.1" y1="692.0" x2="155.7" y2="681.1" stroke="black" stroke-width="1.3" fill="none"/><line x1="180.0" y1="741.5" x2="152.5" y2="750.0" stroke="black" stroke-width="1.3" fill="none"/><line x1="231.5" y1="748.0" x2="193.9" y2="805.2" stroke="black" stroke-width="1.3" fill="none"/><line x1="253.0" y1="748.0" x2="261.9" y2="831.4" stroke="black" stroke-width="1.3" fill="none"/><line x1="278.6" y1="748.0" x2="322.9" y2="791.4" stroke="black" stroke-width="1.3" fill="none"/><line x1="1127.0" y1="218.0" x2="1168.1" y2="249.2" stroke="black" stroke-width="1.3" fill="none"/><line x1="1160.0" y1="170.5" x2="1174.8" y2="166.4" stroke="black" stroke-width="1.3" fill="none"/><line x1="1101.2" y1="162.0" x2="1122.7" y2="108.3" stroke="black" stroke-width="1.3" fill="none"/><line x1="1073.3" y1="162.0" x2="1044.9" y2="114.5" stroke="black" stroke-width="1.3" fill="none"/><line x1="1020.0" y1="182.1" x2="1002.6" y2="180.1" stroke="black" stroke-width="1.3" fill="none"/><line x1="1730.0" y1="176.4" x2="1746.4" y2="173.2" stroke="black" stroke-width="1.3" fill="none"/><line x1="1660.0" y1="162.0" x2="1660.0" y2="102.0" stroke="black" stroke-width="1.3" fill="none"/><line x1="1590.0" y1="176.4" x2="1573.6" y2="173.2" stroke="black" stroke-width="1.3" fill="none"/><line x1="2038.7" y1="218.0" x2="2066.3" y2="233.9" stroke="black" stroke-width="1.3" fill="none"/><line x1="2014.3" y1="162.0" x2="2047.6" y2="123.5" stroke="black" stroke-width="1.3" fill="none"/><line x1="1968.1" y1="162.0" x2="1935.7" y2="120.7" stroke="black" stroke-width="1.3" fill="none"/><line x1="977.0" y1="442.0" x2="953.0" y2="390.1" stroke="black" stroke-width="1.3" fill="none"/><line x1="988.0" y1="498.0" x2="983.7" y2="557.8" stroke="black" stroke-width="1.3" fill="none"/><line x1="1058.8" y1="442.0" x2="1080.8" y2="433.1" stroke="black" stroke-width="1.3" fill="none"/><line x1="1630.4" y1="442.0" x2="1596.0" y2="409.6" stroke="black" stroke-width="1.3" fill="none"/><line x1="1590.0" y1="446.3" x2="1576.7" y2="441.7" stroke="black" stroke-width="1.3" fill="none"/><line x1="1685.0" y1="498.0" x2="1718.6" y2="535.6" stroke="black" stroke-width="1.3" fill="none"/><line x1="1711.6" y1="498.0" x2="1737.3" y2="512.0" stroke="black" stroke-width="1.3" fill="none"/><line x1="1730.0" y1="480.8" x2="1747.0" y2="483.4" stroke="black" stroke-width="1.3" fill="none"/><line x1="1590.0" y1="804.1" x2="1562.3" y2="801.8" stroke="black" stroke-width="1.3" fill="none"/><line x1="1642.8" y1="838.0" x2="1608.6" y2="893.5" stroke="black" stroke-width="1.3" fill="none"/><line x1="1677.2" y1="838.0" x2="1706.1" y2="885.0" stroke="black" stroke-width="1.3" fill="none"/><line x1="1730.0" y1="804.1" x2="1747.7" y2="802.6" stroke="black" stroke-width="1.3" fill="none"/><line x1="320.0" y1="237.9" x2="599.5" y2="309.6" stroke="black" stroke-width="1.3" fill="none"/><line x1="924.7" y1="442.0" x2="673.3" y2="334.3" stroke="black" stroke-width="1.3" fill="none"/><line x1="320.0" y1="698.5" x2="602.0" y2="611.7" stroke="black" stroke-width="1.3" fill="none"/><line x1="920.0" y1="496.0" x2="675.4" y2="586.9" stroke="black" stroke-width="1.3" fill="none"/><line x1="1078.8" y1="218.0" x2="1040.5" y2="313.6" stroke="black" stroke-width="1.3" fill="none"/><line x1="998.6" y1="442.0" x2="1021.5" y2="367.5" stroke="black" stroke-width="1.3" fill="none"/><line x1="1660.0" y1="218.0" x2="1660.0" y2="308.0" stroke="black" stroke-width="1.3" fill="none"/><line x1="1660.0" y1="442.0" x2="1660.0" y2="372.0" stroke="black" stroke-width="1.3" fill="none"/><line x1="1965.7" y1="218.0" x2="1879.0" y2="318.1" stroke="black" stroke-width="1.3" fill="none"/><line x1="1703.1" y1="442.0" x2="1833.0" y2="357.6" stroke="black" stroke-width="1.3" fill="none"/><line x1="1660.0" y1="498.0" x2="1660.0" y2="618.0" stroke="black" stroke-width="1.3" fill="none"/><line x1="1660.0" y1="782.0" x2="1660.0" y2="682.0" stroke="black" stroke-width="1.3" fill="none"/><line x1="1041.3" y1="498.0" x2="1283.7" y2="630.2" stroke="black" stroke-width="1.3" fill="none"/><line x1="1607.1" y1="498.0" x2="1356.9" y2="630.4" stroke="black" stroke-width="1.3" fill="none"/><line x1="1309.6" y1="678.5" x2="1287.5" y2="739.3" stroke="black" stroke-width="1.3" fill="none"/><line x1="1330.4" y1="678.5" x2="1352.5" y2="739.3" stroke="black" stroke-width="1.3" fill="none"/>
<rect x="393.4" y="251.9" width="32" height="14" fill="white"/><text x="409.4" y="263.9" text-anchor="middle" font-size="11.5" font-family="Helvetica,Arial,sans-serif">0,N</text><rect x="828.2" y="398.5" width="32" height="14" fill="white"/><text x="844.2" y="410.5" text-anchor="middle" font-size="11.5" font-family="Helvetica,Arial,sans-serif">1,1</text><rect x="394.2" y="661.7" width="32" height="14" fill="white"/><text x="410.2" y="673.7" text-anchor="middle" font-size="11.5" font-family="Helvetica,Arial,sans-serif">0,N</text><rect x="825.7" y="516.1" width="32" height="14" fill="white"/><text x="841.7" y="528.1" text-anchor="middle" font-size="11.5" font-family="Helvetica,Arial,sans-serif">1,1</text><rect x="1050.6" y="239.6" width="32" height="14" fill="white"/><text x="1066.6" y="251.6" text-anchor="middle" font-size="11.5" font-family="Helvetica,Arial,sans-serif">0,N</text><rect x="990.0" y="409.2" width="32" height="14" fill="white"/><text x="1006.0" y="421.2" text-anchor="middle" font-size="11.5" font-family="Helvetica,Arial,sans-serif">1,1</text><rect x="1644.0" y="237.8" width="32" height="14" fill="white"/><text x="1660.0" y="249.8" text-anchor="middle" font-size="11.5" font-family="Helvetica,Arial,sans-serif">0,N</text><rect x="1644.0" y="410.6" width="32" height="14" fill="white"/><text x="1660.0" y="422.6" text-anchor="middle" font-size="11.5" font-family="Helvetica,Arial,sans-serif">1,1</text><rect x="1922.0" y="241.0" width="32" height="14" fill="white"/><text x="1938.0" y="253.0" text-anchor="middle" font-size="11.5" font-family="Helvetica,Arial,sans-serif">0,N</text><rect x="1728.6" y="406.0" width="32" height="14" fill="white"/><text x="1744.6" y="418.0" text-anchor="middle" font-size="11.5" font-family="Helvetica,Arial,sans-serif">1,1</text><rect x="1644.0" y="527.4" width="32" height="14" fill="white"/><text x="1660.0" y="539.4" text-anchor="middle" font-size="11.5" font-family="Helvetica,Arial,sans-serif">0,N</text><rect x="1644.0" y="741.0" width="32" height="14" fill="white"/><text x="1660.0" y="753.0" text-anchor="middle" font-size="11.5" font-family="Helvetica,Arial,sans-serif">1,1</text><rect x="1102.9" y="531.3" width="32" height="14" fill="white"/><text x="1118.9" y="543.3" text-anchor="middle" font-size="11.5" font-family="Helvetica,Arial,sans-serif">1,N</text><rect x="1511.1" y="531.4" width="32" height="14" fill="white"/><text x="1527.1" y="543.4" text-anchor="middle" font-size="11.5" font-family="Helvetica,Arial,sans-serif">0,N</text>
<polygon points="640,288.0 700.0,320 640,352.0 580.0,320" fill="white" stroke="black" stroke-width="1.4"/><polygon points="640,568.0 700.0,600 640,632.0 580.0,600" fill="white" stroke="black" stroke-width="1.4"/><polygon points="1030,308.0 1090.0,340 1030,372.0 970.0,340" fill="white" stroke="black" stroke-width="1.4"/><polygon points="1660,308.0 1720.0,340 1660,372.0 1600.0,340" fill="white" stroke="black" stroke-width="1.4"/><polygon points="1860,308.0 1920.0,340 1860,372.0 1800.0,340" fill="white" stroke="black" stroke-width="1.4"/><polygon points="1660,618.0 1720.0,650 1660,682.0 1600.0,650" fill="white" stroke="black" stroke-width="1.4"/><polygon points="1320,618.0 1415.0,650 1320,682.0 1225.0,650" fill="white" stroke="black" stroke-width="1.4"/>
<rect x="180.0" y="192.0" width="140.0" height="56.0" fill="white" stroke="black" stroke-width="1.6"/><rect x="180.0" y="692.0" width="140.0" height="56.0" fill="white" stroke="black" stroke-width="1.6"/><rect x="1020.0" y="162.0" width="140.0" height="56.0" fill="white" stroke="black" stroke-width="1.6"/><rect x="1590.0" y="162.0" width="140.0" height="56.0" fill="white" stroke="black" stroke-width="1.6"/><rect x="1920.0" y="162.0" width="140.0" height="56.0" fill="white" stroke="black" stroke-width="1.6"/><rect x="920.0" y="442.0" width="140.0" height="56.0" fill="white" stroke="black" stroke-width="1.6"/><rect x="1590.0" y="442.0" width="140.0" height="56.0" fill="white" stroke="black" stroke-width="1.6"/><rect x="1590.0" y="782.0" width="140.0" height="56.0" fill="white" stroke="black" stroke-width="1.6"/>
<circle cx="335.2" cy="141.3" r="3.2" fill="black"/><circle cx="270.2" cy="620.0" r="3.2" fill="black"/><circle cx="1168.1" cy="249.2" r="3.2" fill="black"/><circle cx="1746.4" cy="173.2" r="3.2" fill="black"/><circle cx="2066.3" cy="233.9" r="3.2" fill="black"/><circle cx="953.0" cy="390.1" r="3.2" fill="black"/><circle cx="1596.0" cy="409.6" r="3.2" fill="black"/><circle cx="1562.3" cy="801.8" r="3.2" fill="black"/>
<text x="342.2" y="145.3" text-anchor="start" font-size="12.5" font-family="Helvetica,Arial,sans-serif">id_privato</text><text x="281.4" y="110.6" text-anchor="start" font-size="12.5" font-family="Helvetica,Arial,sans-serif">email</text><text x="197.8" y="117.2" text-anchor="end" font-size="12.5" font-family="Helvetica,Arial,sans-serif">telefono</text><text x="144.6" y="162.6" text-anchor="end" font-size="12.5" font-family="Helvetica,Arial,sans-serif">citta</text><text x="117.2" y="231.0" text-anchor="end" font-size="12.5" font-family="Helvetica,Arial,sans-serif">codice_fiscale</text><text x="151.9" y="295.9" text-anchor="end" font-size="12.5" font-family="Helvetica,Arial,sans-serif">nome</text><text x="209.9" y="335.2" text-anchor="end" font-size="12.5" font-family="Helvetica,Arial,sans-serif">cognome</text><text x="293.8" y="334.0" text-anchor="start" font-size="12.5" font-family="Helvetica,Arial,sans-serif">data_nascita</text><text x="277.2" y="624.0" text-anchor="start" font-size="12.5" font-family="Helvetica,Arial,sans-serif">id_azienda</text><text x="195.0" y="634.0" text-anchor="end" font-size="12.5" font-family="Helvetica,Arial,sans-serif">email</text><text x="148.7" y="685.1" text-anchor="end" font-size="12.5" font-family="Helvetica,Arial,sans-serif">telefono</text><text x="145.5" y="754.0" text-anchor="end" font-size="12.5" font-family="Helvetica,Arial,sans-serif">citta</text><text x="186.9" y="809.2" text-anchor="end" font-size="12.5" font-family="Helvetica,Arial,sans-serif">partita_iva</text><text x="268.9" y="835.4" text-anchor="start" font-size="12.5" font-family="Helvetica,Arial,sans-serif">ragione_sociale</text><text x="329.9" y="795.4" text-anchor="start" font-size="12.5" font-family="Helvetica,Arial,sans-serif">settore</text><text x="1175.1" y="253.2" text-anchor="start" font-size="12.5" font-family="Helvetica,Arial,sans-serif">id_dipendente</text><text x="1181.8" y="170.4" text-anchor="start" font-size="12.5" font-family="Helvetica,Arial,sans-serif">nome</text><text x="1129.7" y="112.3" text-anchor="start" font-size="12.5" font-family="Helvetica,Arial,sans-serif">cognome</text><text x="1037.9" y="118.5" text-anchor="end" font-size="12.5" font-family="Helvetica,Arial,sans-serif">ruolo</text><text x="995.6" y="184.1" text-anchor="end" font-size="12.5" font-family="Helvetica,Arial,sans-serif">stipendio</text><text x="1753.4" y="177.2" text-anchor="start" font-size="12.5" font-family="Helvetica,Arial,sans-serif">id_marca</text><text x="1660.0" y="106.0" text-anchor="middle" font-size="12.5" font-family="Helvetica,Arial,sans-serif">nome</text><text x="1566.6" y="177.2" text-anchor="end" font-size="12.5" font-family="Helvetica,Arial,sans-serif">paese</text><text x="2073.3" y="237.9" text-anchor="start" font-size="12.5" font-family="Helvetica,Arial,sans-serif">id_fornitore</text><text x="2054.6" y="127.5" text-anchor="start" font-size="12.5" font-family="Helvetica,Arial,sans-serif">nome</text><text x="1928.7" y="124.7" text-anchor="end" font-size="12.5" font-family="Helvetica,Arial,sans-serif">paese</text><text x="946.0" y="394.1" text-anchor="end" font-size="12.5" font-family="Helvetica,Arial,sans-serif">id_vendita</text><text x="976.7" y="561.8" text-anchor="end" font-size="12.5" font-family="Helvetica,Arial,sans-serif">data_vendita</text><text x="1087.8" y="437.1" text-anchor="start" font-size="12.5" font-family="Helvetica,Arial,sans-serif">importo_totale</text><text x="1589.0" y="413.6" text-anchor="end" font-size="12.5" font-family="Helvetica,Arial,sans-serif">id_auto</text><text x="1569.7" y="445.7" text-anchor="end" font-size="12.5" font-family="Helvetica,Arial,sans-serif">modello</text><text x="1725.6" y="539.6" text-anchor="start" font-size="12.5" font-family="Helvetica,Arial,sans-serif">prezzo</text><text x="1744.3" y="516.0" text-anchor="start" font-size="12.5" font-family="Helvetica,Arial,sans-serif">anno</text><text x="1754.0" y="487.4" text-anchor="start" font-size="12.5" font-family="Helvetica,Arial,sans-serif">stato</text><text x="1555.3" y="805.8" text-anchor="end" font-size="12.5" font-family="Helvetica,Arial,sans-serif">id_manutenzione</text><text x="1601.6" y="897.5" text-anchor="end" font-size="12.5" font-family="Helvetica,Arial,sans-serif">data_intervento</text><text x="1713.1" y="889.0" text-anchor="start" font-size="12.5" font-family="Helvetica,Arial,sans-serif">descrizione</text><text x="1754.7" y="806.6" text-anchor="start" font-size="12.5" font-family="Helvetica,Arial,sans-serif">costo</text><text x="1280.5" y="743.3" text-anchor="end" font-size="12.5" font-family="Helvetica,Arial,sans-serif">quantita</text><text x="1359.5" y="743.3" text-anchor="start" font-size="12.5" font-family="Helvetica,Arial,sans-serif">prezzo_unitario</text><text x="640.0" y="324.0" text-anchor="middle" font-size="12" font-style="italic" font-family="Helvetica,Arial,sans-serif">effettua</text><text x="640.0" y="604.0" text-anchor="middle" font-size="12" font-style="italic" font-family="Helvetica,Arial,sans-serif">effettua</text><text x="1030.0" y="344.0" text-anchor="middle" font-size="12" font-style="italic" font-family="Helvetica,Arial,sans-serif">gestisce</text><text x="1660.0" y="344.0" text-anchor="middle" font-size="12" font-style="italic" font-family="Helvetica,Arial,sans-serif">produce</text><text x="1860.0" y="344.0" text-anchor="middle" font-size="12" font-style="italic" font-family="Helvetica,Arial,sans-serif">fornisce</text><text x="1660.0" y="654.0" text-anchor="middle" font-size="12" font-style="italic" font-family="Helvetica,Arial,sans-serif">richiede</text><text x="1320.0" y="654.0" text-anchor="middle" font-size="12" font-style="italic" font-family="Helvetica,Arial,sans-serif">DETTAGLIO_VENDITA</text><text x="250.0" y="225.0" text-anchor="middle" font-size="15" font-weight="700" font-family="Helvetica,Arial,sans-serif">PRIVATO</text><text x="250.0" y="725.0" text-anchor="middle" font-size="15" font-weight="700" font-family="Helvetica,Arial,sans-serif">AZIENDA</text><text x="1090.0" y="195.0" text-anchor="middle" font-size="15" font-weight="700" font-family="Helvetica,Arial,sans-serif">DIPENDENTE</text><text x="1660.0" y="195.0" text-anchor="middle" font-size="15" font-weight="700" font-family="Helvetica,Arial,sans-serif">MARCA</text><text x="1990.0" y="195.0" text-anchor="middle" font-size="15" font-weight="700" font-family="Helvetica,Arial,sans-serif">FORNITORE</text><text x="990.0" y="475.0" text-anchor="middle" font-size="15" font-weight="700" font-family="Helvetica,Arial,sans-serif">VENDITA</text><text x="1660.0" y="475.0" text-anchor="middle" font-size="15" font-weight="700" font-family="Helvetica,Arial,sans-serif">AUTO</text><text x="1660.0" y="815.0" text-anchor="middle" font-size="15" font-weight="700" font-family="Helvetica,Arial,sans-serif">MANUTENZIONE</text>
</svg>