<svg viewBox="0 0 2150 1020" xmlns="http://www.w3.org/2000/svg" role="img" font-family="Helvetica,Arial,sans-serif">
<title>Scenario 3 — Tre tabelle: padre e figli — Concessionaria Auto</title>
<desc>Diagramma Entita-Relazione completo in notazione Chen dello schema concettuale della concessionaria auto, scenario 3 (soluzione adottata): Cliente resta entita separata con gli attributi comuni, collegata tramite relazioni 1:1 opzionali "appartiene" a Privato e Azienda, che contengono solo gli attributi specifici.</desc>
<rect x="0" y="0" width="2150" height="1020" fill="white"/>
<line x1="497.9" y1="198.0" x2="493.3" y2="257.7" stroke="black" stroke-width="1.3" fill="none"/><line x1="532.8" y1="142.0" x2="566.9" y2="112.8" stroke="black" stroke-width="1.3" fill="none"/><line x1="504.4" y1="142.0" x2="513.6" y2="83.1" stroke="black" stroke-width="1.3" fill="none"/><line x1="482.7" y1="142.0" x2="453.7" y2="95.2" stroke="black" stroke-width="1.3" fill="none"/><line x1="430.0" y1="147.8" x2="416.1" y2="143.4" stroke="black" stroke-width="1.3" fill="none"/><line x1="214.8" y1="442.0" x2="188.0" y2="392.7" stroke="black" stroke-width="1.3" fill="none"/><line x1="160.0" y1="449.4" x2="145.6" y2="445.2" stroke="black" stroke-width="1.3" fill="none"/><line x1="179.0" y1="498.0" x2="144.1" y2="517.2" stroke="black" stroke-width="1.3" fill="none"/><line x1="221.9" y1="498.0" x2="205.6" y2="554.6" stroke="black" stroke-width="1.3" fill="none"/><line x1="245.6" y1="498.0" x2="272.7" y2="546.9" stroke="black" stroke-width="1.3" fill="none"/><line x1="300.0" y1="489.8" x2="314.7" y2="494.0" stroke="black" stroke-width="1.3" fill="none"/><line x1="590.0" y1="473.8" x2="572.1" y2="474.8" stroke="black" stroke-width="1.3" fill="none"/><line x1="640.9" y1="498.0" x2="610.5" y2="542.8" stroke="black" stroke-width="1.3" fill="none"/><line x1="669.3" y1="498.0" x2="687.8" y2="553.5" stroke="black" stroke-width="1.3" fill="none"/><line x1="730.0" y1="494.0" x2="752.7" y2="501.7" stroke="black" stroke-width="1.3" fill="none"/><line x1="701.9" y1="442.0" x2="733.2" y2="421.1" stroke="black" stroke-width="1.3" fill="none"/><line x1="1191.9" y1="198.0" x2="1231.5" y2="224.5" stroke="black" stroke-width="1.3" fill="none"/><line x1="1220.0" y1="146.0" x2="1233.3" y2="141.5" stroke="black" stroke-width="1.3" fill="none"/><line x1="1159.3" y1="142.0" x2="1177.8" y2="86.5" stroke="black" stroke-width="1.3" fill="none"/><line x1="1130.9" y1="142.0" x2="1100.5" y2="97.2" stroke="black" stroke-width="1.3" fill="none"/><line x1="1080.0" y1="166.2" x2="1062.1" y2="165.2" stroke="black" stroke-width="1.3" fill="none"/><line x1="1730.0" y1="156.4" x2="1746.4" y2="153.2" stroke="black" stroke-width="1.3" fill="none"/><line x1="1660.0" y1="142.0" x2="1660.0" y2="82.0" stroke="black" stroke-width="1.3" fill="none"/><line x1="1590.0" y1="156.4" x2="1573.6" y2="153.2" stroke="black" stroke-width="1.3" fill="none"/><line x1="2038.7" y1="198.0" x2="2066.3" y2="213.9" stroke="black" stroke-width="1.3" fill="none"/><line x1="2014.3" y1="142.0" x2="2047.6" y2="103.5" stroke="black" stroke-width="1.3" fill="none"/><line x1="1968.1" y1="142.0" x2="1935.7" y2="100.7" stroke="black" stroke-width="1.3" fill="none"/><line x1="1018.4" y1="498.0" x2="987.0" y2="519.1" stroke="black" stroke-width="1.3" fill="none"/><line x1="1055.7" y1="498.0" x2="1046.5" y2="557.0" stroke="black" stroke-width="1.3" fill="none"/><line x1="1126.7" y1="442.0" x2="1150.4" y2="432.1" stroke="black" stroke-width="1.3" fill="none"/><line x1="1629.8" y1="442.0" x2="1595.5" y2="410.2" stroke="black" stroke-width="1.3" fill="none"/><line x1="1590.0" y1="447.7" x2="1576.1" y2="443.3" stroke="black" stroke-width="1.3" fill="none"/><line x1="1685.9" y1="498.0" x2="1719.7" y2="534.7" stroke="black" stroke-width="1.3" fill="none"/><line x1="1716.0" y1="498.0" x2="1738.7" y2="509.4" stroke="black" stroke-width="1.3" fill="none"/><line x1="1730.0" y1="477.2" x2="1747.5" y2="479.0" stroke="black" stroke-width="1.3" fill="none"/><line x1="1590.0" y1="804.1" x2="1562.3" y2="801.8" stroke="black" stroke-width="1.3" fill="none"/><line x1="1642.8" y1="838.0" x2="1608.6" y2="893.5" stroke="black" stroke-width="1.3" fill="none"/><line x1="1677.2" y1="838.0" x2="1706.1" y2="885.0" stroke="black" stroke-width="1.3" fill="none"/><line x1="1730.0" y1="804.1" x2="1747.7" y2="802.6" stroke="black" stroke-width="1.3" fill="none"/><line x1="472.0" y1="198.0" x2="370.9" y2="299.1" stroke="black" stroke-width="1.3" fill="none"/><line x1="252.4" y1="442.0" x2="332.1" y2="342.4" stroke="black" stroke-width="1.3" fill="none"/><line x1="520.5" y1="198.0" x2="593.1" y2="297.0" stroke="black" stroke-width="1.3" fill="none"/><line x1="650.7" y1="442.0" x2="619.1" y2="347.2" stroke="black" stroke-width="1.3" fill="none"/><line x1="568.9" y1="198.0" x2="785.9" y2="286.2" stroke="black" stroke-width="1.3" fill="none"/><line x1="1020.5" y1="442.0" x2="845.8" y2="318.3" stroke="black" stroke-width="1.3" fill="none"/><line x1="1140.7" y1="198.0" x2="1109.1" y2="292.8" stroke="black" stroke-width="1.3" fill="none"/><line x1="1067.5" y1="442.0" x2="1092.5" y2="348.0" stroke="black" stroke-width="1.3" fill="none"/><line x1="1660.0" y1="198.0" x2="1660.0" y2="288.0" stroke="black" stroke-width="1.3" fill="none"/><line x1="1660.0" y1="442.0" x2="1660.0" y2="352.0" stroke="black" stroke-width="1.3" fill="none"/><line x1="1965.7" y1="198.0" x2="1879.0" y2="298.1" stroke="black" stroke-width="1.3" fill="none"/><line x1="1697.3" y1="442.0" x2="1835.1" y2="338.7" stroke="black" stroke-width="1.3" fill="none"/><line x1="1660.0" y1="498.0" x2="1660.0" y2="608.0" stroke="black" stroke-width="1.3" fill="none"/><line x1="1660.0" y1="782.0" x2="1660.0" y2="672.0" stroke="black" stroke-width="1.3" fill="none"/><line x1="1109.4" y1="498.0" x2="1324.6" y2="619.9" stroke="black" stroke-width="1.3" fill="none"/><line x1="1610.6" y1="498.0" x2="1395.4" y2="619.9" stroke="black" stroke-width="1.3" fill="none"/><line x1="1349.6" y1="668.5" x2="1327.5" y2="729.3" stroke="black" stroke-width="1.3" fill="none"/><line x1="1370.4" y1="668.5" x2="1392.5" y2="729.3" stroke="black" stroke-width="1.3" fill="none"/>
<rect x="423.6" y="221.4" width="32" height="14" fill="white"/><text x="439.6" y="233.4" text-anchor="middle" font-size="11.5" font-family="Helvetica,Arial,sans-serif">0,1</text><rect x="261.9" y="401.1" width="32" height="14" fill="white"/><text x="277.9" y="413.1" text-anchor="middle" font-size="11.5" font-family="Helvetica,Arial,sans-serif">1,1</text><rect x="527.8" y="220.7" width="32" height="14" fill="white"/><text x="543.8" y="232.7" text-anchor="middle" font-size="11.5" font-family="Helvetica,Arial,sans-serif">0,1</text><rect x="624.6" y="402.7" width="32" height="14" fill="white"/><text x="640.6" y="414.7" text-anchor="middle" font-size="11.5" font-family="Helvetica,Arial,sans-serif">1,1</text><rect x="622.4" y="217.2" width="32" height="14" fill="white"/><text x="638.4" y="229.2" text-anchor="middle" font-size="11.5" font-family="Helvetica,Arial,sans-serif">0,N</text><rect x="948.6" y="393.4" width="32" height="14" fill="white"/><text x="964.6" y="405.4" text-anchor="middle" font-size="11.5" font-family="Helvetica,Arial,sans-serif">1,1</text><rect x="1114.6" y="219.3" width="32" height="14" fill="white"/><text x="1130.6" y="231.3" text-anchor="middle" font-size="11.5" font-family="Helvetica,Arial,sans-serif">0,N</text><rect x="1059.5" y="402.9" width="32" height="14" fill="white"/><text x="1075.5" y="414.9" text-anchor="middle" font-size="11.5" font-family="Helvetica,Arial,sans-serif">1,1</text><rect x="1644.0" y="217.8" width="32" height="14" fill="white"/><text x="1660.0" y="229.8" text-anchor="middle" font-size="11.5" font-family="Helvetica,Arial,sans-serif">0,N</text><rect x="1644.0" y="404.2" width="32" height="14" fill="white"/><text x="1660.0" y="416.2" text-anchor="middle" font-size="11.5" font-family="Helvetica,Arial,sans-serif">1,1</text><rect x="1922.0" y="221.0" width="32" height="14" fill="white"/><text x="1938.0" y="233.0" text-anchor="middle" font-size="11.5" font-family="Helvetica,Arial,sans-serif">0,N</text><rect x="1725.4" y="399.9" width="32" height="14" fill="white"/><text x="1741.4" y="411.9" text-anchor="middle" font-size="11.5" font-family="Helvetica,Arial,sans-serif">1,1</text><rect x="1644.0" y="524.2" width="32" height="14" fill="white"/><text x="1660.0" y="536.2" text-anchor="middle" font-size="11.5" font-family="Helvetica,Arial,sans-serif">0,N</text><rect x="1644.0" y="737.8" width="32" height="14" fill="white"/><text x="1660.0" y="749.8" text-anchor="middle" font-size="11.5" font-family="Helvetica,Arial,sans-serif">1,1</text><rect x="1162.3" y="528.0" width="32" height="14" fill="white"/><text x="1178.3" y="540.0" text-anchor="middle" font-size="11.5" font-family="Helvetica,Arial,sans-serif">1,N</text><rect x="1525.7" y="528.0" width="32" height="14" fill="white"/><text x="1541.7" y="540.0" text-anchor="middle" font-size="11.5" font-family="Helvetica,Arial,sans-serif">0,N</text>
<polygon points="350,288.0 410.0,320 350,352.0 290.0,320" fill="white" stroke="black" stroke-width="1.4"/><polygon points="610,288.0 670.0,320 610,352.0 550.0,320" fill="white" stroke="black" stroke-width="1.4"/><polygon points="820,268.0 880.0,300 820,332.0 760.0,300" fill="white" stroke="black" stroke-width="1.4"/><polygon points="1100,288.0 1160.0,320 1100,352.0 1040.0,320" fill="white" stroke="black" stroke-width="1.4"/><polygon points="1660,288.0 1720.0,320 1660,352.0 1600.0,320" fill="white" stroke="black" stroke-width="1.4"/><polygon points="1860,288.0 1920.0,320 1860,352.0 1800.0,320" fill="white" stroke="black" stroke-width="1.4"/><polygon points="1660,608.0 1720.0,640 1660,672.0 1600.0,640" fill="white" stroke="black" stroke-width="1.4"/><polygon points="1360,608.0 1455.0,640 1360,672.0 1265.0,640" fill="white" stroke="black" stroke-width="1.4"/>
<rect x="430.0" y="142.0" width="140.0" height="56.0" fill="white" stroke="black" stroke-width="1.6"/><rect x="160.0" y="442.0" width="140.0" height="56.0" fill="white" stroke="black" stroke-width="1.6"/><rect x="590.0" y="442.0" width="140.0" height="56.0" fill="white" stroke="black" stroke-width="1.6"/><rect x="1080.0" y="142.0" width="140.0" height="56.0" fill="white" stroke="black" stroke-width="1.6"/><rect x="1590.0" y="142.0" width="140.0" height="56.0" fill="white" stroke="black" stroke-width="1.6"/><rect x="1920.0" y="142.0" width="140.0" height="56.0" fill="white" stroke="black" stroke-width="1.6"/><rect x="990.0" y="442.0" width="140.0" height="56.0" fill="white" stroke="black" stroke-width="1.6"/><rect x="1590.0" y="442.0" width="140.0" height="56.0" fill="white" stroke="black" stroke-width="1.6"/><rect x="1590.0" y="782.0" width="140.0" height="56.0" fill="white" stroke="black" stroke-width="1.6"/>
<circle cx="493.3" cy="257.7" r="3.2" fill="black"/><circle cx="188.0" cy="392.7" r="3.2" fill="black"/><circle cx="572.1" cy="474.8" r="3.2" fill="black"/><circle cx="1231.5" cy="224.5" r="3.2" fill="black"/><circle cx="1746.4" cy="153.2" r="3.2" fill="black"/><circle cx="2066.3" cy="213.9" r="3.2" fill="black"/><circle cx="987.0" cy="519.1" r="3.2" fill="black"/><circle cx="1595.5" cy="410.2" r="3.2" fill="black"/><circle cx="1562.3" cy="801.8" r="3.2" fill="black"/>
<text x="486.3" y="261.7" text-anchor="end" font-size="12.5" font-family="Helvetica,Arial,sans-serif">id_cliente</text><text x="573.9" y="116.8" text-anchor="start" font-size="12.5" font-family="Helvetica,Arial,sans-serif">email</text><text x="520.6" y="87.1" text-anchor="start" font-size="12.5" font-family="Helvetica,Arial,sans-serif">telefono</text><text x="446.7" y="99.2" text-anchor="end" font-size="12.5" font-family="Helvetica,Arial,sans-serif">citta</text><text x="409.1" y="147.4" text-anchor="end" font-size="12.5" font-family="Helvetica,Arial,sans-serif">tipo_cliente</text><text x="181.0" y="396.7" text-anchor="end" font-size="12.5" font-family="Helvetica,Arial,sans-serif">id_privato</text><text x="138.6" y="449.2" text-anchor="end" font-size="12.5" font-family="Helvetica,Arial,sans-serif">id_cliente</text><text x="137.1" y="521.2" text-anchor="end" font-size="12.5" font-family="Helvetica,Arial,sans-serif">codice_fiscale</text><text x="198.6" y="558.6" text-anchor="end" font-size="12.5" font-family="Helvetica,Arial,sans-serif">nome</text><text x="279.7" y="550.9" text-anchor="start" font-size="12.5" font-family="Helvetica,Arial,sans-serif">cognome</text><text x="321.7" y="498.0" text-anchor="start" font-size="12.5" font-family="Helvetica,Arial,sans-serif">data_nascita</text><text x="565.1" y="478.8" text-anchor="end" font-size="12.5" font-family="Helvetica,Arial,sans-serif">id_azienda</text><text x="603.5" y="546.8" text-anchor="end" font-size="12.5" font-family="Helvetica,Arial,sans-serif">id_cliente</text><text x="694.8" y="557.5" text-anchor="start" font-size="12.5" font-family="Helvetica,Arial,sans-serif">partita_iva</text><text x="759.7" y="505.7" text-anchor="start" font-size="12.5" font-family="Helvetica,Arial,sans-serif">ragione_sociale</text><text x="740.2" y="425.1" text-anchor="start" font-size="12.5" font-family="Helvetica,Arial,sans-serif">settore</text><text x="1238.5" y="228.5" text-anchor="start" font-size="12.5" font-family="Helvetica,Arial,sans-serif">id_dipendente</text><text x="1240.3" y="145.5" text-anchor="start" font-size="12.5" font-family="Helvetica,Arial,sans-serif">nome</text><text x="1184.8" y="90.5" text-anchor="start" font-size="12.5" font-family="Helvetica,Arial,sans-serif">cognome</text><text x="1093.5" y="101.2" text-anchor="end" font-size="12.5" font-family="Helvetica,Arial,sans-serif">ruolo</text><text x="1055.1" y="169.2" text-anchor="end" font-size="12.5" font-family="Helvetica,Arial,sans-serif">stipendio</text><text x="1753.4" y="157.2" text-anchor="start" font-size="12.5" font-family="Helvetica,Arial,sans-serif">id_marca</text><text x="1660.0" y="86.0" text-anchor="middle" font-size="12.5" font-family="Helvetica,Arial,sans-serif">nome</text><text x="1566.6" y="157.2" text-anchor="end" font-size="12.5" font-family="Helvetica,Arial,sans-serif">paese</text><text x="2073.3" y="217.9" text-anchor="start" font-size="12.5" font-family="Helvetica,Arial,sans-serif">id_fornitore</text><text x="2054.6" y="107.5" text-anchor="start" font-size="12.5" font-family="Helvetica,Arial,sans-serif">nome</text><text x="1928.7" y="104.7" text-anchor="end" font-size="12.5" font-family="Helvetica,Arial,sans-serif">paese</text><text x="980.0" y="523.1" text-anchor="end" font-size="12.5" font-family="Helvetica,Arial,sans-serif">id_vendita</text><text x="1039.5" y="561.0" text-anchor="end" font-size="12.5" font-family="Helvetica,Arial,sans-serif">data_vendita</text><text x="1157.4" y="436.1" text-anchor="start" font-size="12.5" font-family="Helvetica,Arial,sans-serif">importo_totale</text><text x="1588.5" y="414.2" text-anchor="end" font-size="12.5" font-family="Helvetica,Arial,sans-serif">id_auto</text><text x="1569.1" y="447.3" text-anchor="end" font-size="12.5" font-family="Helvetica,Arial,sans-serif">modello</text><text x="1726.7" y="538.7" text-anchor="start" font-size="12.5" font-family="Helvetica,Arial,sans-serif">prezzo</text><text x="1745.7" y="513.4" text-anchor="start" font-size="12.5" font-family="Helvetica,Arial,sans-serif">anno</text><text x="1754.5" y="483.0" text-anchor="start" font-size="12.5" font-family="Helvetica,Arial,sans-serif">stato</text><text x="1555.3" y="805.8" text-anchor="end" font-size="12.5" font-family="Helvetica,Arial,sans-serif">id_manutenzione</text><text x="1601.6" y="897.5" text-anchor="end" font-size="12.5" font-family="Helvetica,Arial,sans-serif">data_intervento</text><text x="1713.1" y="889.0" text-anchor="start" font-size="12.5" font-family="Helvetica,Arial,sans-serif">descrizione</text><text x="1754.7" y="806.6" text-anchor="start" font-size="12.5" font-family="Helvetica,Arial,sans-serif">costo</text><text x="1320.5" y="733.3" text-anchor="end" font-size="12.5" font-family="Helvetica,Arial,sans-serif">quantita</text><text x="1399.5" y="733.3" text-anchor="start" font-size="12.5" font-family="Helvetica,Arial,sans-serif">prezzo_unitario</text><text x="350.0" y="324.0" text-anchor="middle" font-size="12" font-style="italic" font-family="Helvetica,Arial,sans-serif">appartiene</text><text x="610.0" y="324.0" text-anchor="middle" font-size="12" font-style="italic" font-family="Helvetica,Arial,sans-serif">appartiene</text><text x="820.0" y="304.0" text-anchor="middle" font-size="12" font-style="italic" font-family="Helvetica,Arial,sans-serif">effettua</text><text x="1100.0" y="324.0" text-anchor="middle" font-size="12" font-style="italic" font-family="Helvetica,Arial,sans-serif">gestisce</text><text x="1660.0" y="324.0" text-anchor="middle" font-size="12" font-style="italic" font-family="Helvetica,Arial,sans-serif">produce</text><text x="1860.0" y="324.0" text-anchor="middle" font-size="12" font-style="italic" font-family="Helvetica,Arial,sans-serif">fornisce</text><text x="1660.0" y="644.0" text-anchor="middle" font-size="12" font-style="italic" font-family="Helvetica,Arial,sans-serif">richiede</text><text x="1360.0" y="644.0" text-anchor="middle" font-size="12" font-style="italic" font-family="Helvetica,Arial,sans-serif">DETTAGLIO_VENDITA</text><text x="500.0" y="175.0" text-anchor="middle" font-size="15" font-weight="700" font-family="Helvetica,Arial,sans-serif">CLIENTE</text><text x="230.0" y="475.0" text-anchor="middle" font-size="15" font-weight="700" font-family="Helvetica,Arial,sans-serif">PRIVATO</text><text x="660.0" y="475.0" text-anchor="middle" font-size="15" font-weight="700" font-family="Helvetica,Arial,sans-serif">AZIENDA</text><text x="1150.0" y="175.0" text-anchor="middle" font-size="15" font-weight="700" font-family="Helvetica,Arial,sans-serif">DIPENDENTE</text><text x="1660.0" y="175.0" text-anchor="middle" font-size="15" font-weight="700" font-family="Helvetica,Arial,sans-serif">MARCA</text><text x="1990.0" y="175.0" text-anchor="middle" font-size="15" font-weight="700" font-family="Helvetica,Arial,sans-serif">FORNITORE</text><text x="1060.0" y="475.0" text-anchor="middle" font-size="15" font-weight="700" font-family="Helvetica,Arial,sans-serif">VENDITA</text><text x="1660.0" y="475.0" text-anchor="middle" font-size="15" font-weight="700" font-family="Helvetica,Arial,sans-serif">AUTO</text><text x="1660.0" y="815.0" text-anchor="middle" font-size="15" font-weight="700" font-family="Helvetica,Arial,sans-serif">MANUTENZIONE</text>
</svg>